{
  "accessors": [
    {
      "bufferView": 2,
      "componentType": 5126,
      "count": 391,
      "max": [
        27.871862411499023,
        27.997623443603516,
        121.56755065917969
      ],
      "min": [
        -27.932132720947266,
        -27.675832748413086,
        0.0
      ],
      "type": "VEC3"
    },
    {
      "bufferView": 2,
      "byteOffset": 4692,
      "componentType": 5126,
      "count": 391,
      "max": [
        1.0,
        1.0,
        1.0
      ],
      "min": [
        -1.0,
        -1.0,
        -1.0
      ],
      "type": "VEC3"
    },
    {
      "bufferView": 1,
      "componentType": 5126,
      "count": 391,
      "max": [
        0.9812384247779846,
        0.9800208806991577
      ],
      "min": [
        0.04057750478386879,
        0.010519376024603844
      ],
      "type": "VEC2"
    },
    {
      "bufferView": 0,
      "componentType": 5125,
      "count": 1209,
      "type": "SCALAR"
    },
    {
      "bufferView": 2,
      "byteOffset": 9384,
      "componentType": 5126,
      "count": 431,
      "max": [
        28.192888259887695,
        26.39189338684082,
        136.14315795898438
      ],
      "min": [
        -27.44846534729004,
        -51.17640686035156,
        5.2138671875
      ],
      "type": "VEC3"
    },
    {
      "bufferView": 2,
      "byteOffset": 14556,
      "componentType": 5126,
      "count": 431,
      "max": [
        0.9973571300506592,
        0.9999151825904846,
        0.9891248941421509
      ],
      "min": [
        -0.9975760579109192,
        -0.9953679442405701,
        -0.9916340112686157
      ],
      "type": "VEC3"
    },
    {
      "bufferView": 1,
      "byteOffset": 3128,
      "componentType": 5126,
      "count": 431,
      "max": [
        0.9882213473320007,
        0.9919463396072388
      ],
      "min": [
        0.030558139085769653,
        0.0005000000237487257
      ],
      "type": "VEC2"
    },
    {
      "bufferView": 0,
      "byteOffset": 4836,
      "componentType": 5125,
      "count": 1863,
      "type": "SCALAR"
    },
    {
      "bufferView": 2,
      "byteOffset": 19728,
      "componentType": 5126,
      "count": 100,
      "max": [
        26.87668800354004,
        -5.078708648681641,
        126.00230407714844
      ],
      "min": [
        -26.134431838989258,
        -50.455039978027344,
        78.05148315429688
      ],
      "type": "VEC3"
    },
    {
      "bufferView": 2,
      "byteOffset": 20928,
      "componentType": 5126,
      "count": 100,
      "max": [
        0.9488768577575684,
        0.2829976975917816,
        0.6140477657318115
      ],
      "min": [
        -0.9504433870315552,
        -0.9788291454315186,
        -0.9916340112686157
      ],
      "type": "VEC3"
    },
    {
      "bufferView": 1,
      "byteOffset": 6576,
      "componentType": 5126,
      "count": 100,
      "max": [
        0.7122344374656677,
        0.9401454925537109
      ],
      "min": [
        0.21029363572597504,
        0.7213538289070129
      ],
      "type": "VEC2"
    },
    {
      "bufferView": 0,
      "byteOffset": 12288,
      "componentType": 5125,
      "count": 456,
      "type": "SCALAR"
    },
    {
      "bufferView": 2,
      "byteOffset": 22128,
      "componentType": 5126,
      "count": 83,
      "max": [
        7.374622344970703,
        4.1351776123046875,
        130.10311889648438
      ],
      "min": [
        -6.838787078857422,
        -14.08711051940918,
        111.99299621582031
      ],
      "type": "VEC3"
    },
    {
      "bufferView": 2,
      "byteOffset": 23124,
      "componentType": 5126,
      "count": 83,
      "max": [
        0.9822981953620911,
        0.6496912240982056,
        0.871265709400177
      ],
      "min": [
        -0.9822984933853149,
        -0.9827859997749329,
        -0.8563216924667358
      ],
      "type": "VEC3"
    },
    {
      "bufferView": 1,
      "byteOffset": 7376,
      "componentType": 5126,
      "count": 83,
      "max": [
        0.9220659732818604,
        0.6971861720085144
      ],
      "min": [
        0.4714106619358063,
        0.21591657400131226
      ],
      "type": "VEC2"
    },
    {
      "bufferView": 0,
      "byteOffset": 14112,
      "componentType": 5125,
      "count": 237,
      "type": "SCALAR"
    },
    {
      "bufferView": 2,
      "byteOffset": 24120,
      "componentType": 5126,
      "count": 509,
      "max": [
        15.800439834594727,
        43.13067626953125,
        9.837932586669922
      ],
      "min": [
        -59.44632339477539,
        -57.03849792480469,
        0.29099786281585693
      ],
      "type": "VEC3"
    },
    {
      "bufferView": 2,
      "byteOffset": 30228,
      "componentType": 5126,
      "count": 509,
      "max": [
        0.9797500967979431,
        0.9899850487709045,
        0.999938428401947
      ],
      "min": [
        -0.9815391302108765,
        -0.9863355159759521,
        -0.9954019784927368
      ],
      "type": "VEC3"
    },
    {
      "bufferView": 1,
      "byteOffset": 8040,
      "componentType": 5126,
      "count": 509,
      "max": [
        0.9894065260887146,
        0.9909849762916565
      ],
      "min": [
        0.0005000000237487257,
        0.005509679671376944
      ],
      "type": "VEC2"
    },
    {
      "bufferView": 0,
      "byteOffset": 15060,
      "componentType": 5125,
      "count": 2220,
      "type": "SCALAR"
    },
    {
      "bufferView": 2,
      "byteOffset": 36336,
      "componentType": 5126,
      "count": 108,
      "max": [
        -4.819053649902344,
        -50.14927291870117,
        3.1313767433166504
      ],
      "min": [
        -14.291487693786621,
        -59.505943298339844,
        1.4456229209899902
      ],
      "type": "VEC3"
    },
    {
      "bufferView": 2,
      "byteOffset": 37632,
      "componentType": 5126,
      "count": 108,
      "max": [
        0.8411174416542053,
        0.6164847612380981,
        0.9953986406326294
      ],
      "min": [
        -0.9866482019424438,
        -0.9931076169013977,
        -0.9953987002372742
      ],
      "type": "VEC3"
    },
    {
      "bufferView": 1,
      "byteOffset": 12112,
      "componentType": 5126,
      "count": 108,
      "max": [
        0.8630569577217102,
        0.9623445868492126
      ],
      "min": [
        0.22210876643657684,
        0.7757670283317566
      ],
      "type": "VEC2"
    },
    {
      "bufferView": 0,
      "byteOffset": 23940,
      "componentType": 5125,
      "count": 288,
      "type": "SCALAR"
    },
    {
      "bufferView": 2,
      "byteOffset": 38928,
      "componentType": 5126,
      "count": 104,
      "max": [
        -8.849822998046875,
        -55.595638275146484,
        2.5018157958984375
      ],
      "min": [
        -15.69614028930664,
        -61.51408767700195,
        1.112762451171875
      ],
      "type": "VEC3"
    },
    {
      "bufferView": 2,
      "byteOffset": 40176,
      "componentType": 5126,
      "count": 104,
      "max": [
        0.9977282285690308,
        0.9583098888397217,
        0.995398759841919
      ],
      "min": [
        -0.9802320599555969,
        -0.9897620677947998,
        -0.995398759841919
      ],
      "type": "VEC3"
    },
    {
      "bufferView": 1,
      "byteOffset": 12976,
      "componentType": 5126,
      "count": 104,
      "max": [
        0.9794628024101257,
        0.9994999766349792
      ],
      "min": [
        0.0005000000237487257,
        0.7619726061820984
      ],
      "type": "VEC2"
    },
    {
      "bufferView": 0,
      "byteOffset": 25092,
      "componentType": 5125,
      "count": 324,
      "type": "SCALAR"
    },
    {
      "bufferView": 2,
      "byteOffset": 41424,
      "componentType": 5126,
      "count": 206,
      "max": [
        36.39471435546875,
        36.956153869628906,
        37.52626037597656
      ],
      "min": [
        -36.39470672607422,
        -36.956153869628906,
        -53.46393966674805
      ],
      "type": "VEC3"
    },
    {
      "bufferView": 2,
      "byteOffset": 43896,
      "componentType": 5126,
      "count": 206,
      "max": [
        0.9703962206840515,
        0.9853659868240356,
        1.0
      ],
      "min": [
        -0.9703960418701172,
        -0.9853659868240356,
        -0.43964216113090515
      ],
      "type": "VEC3"
    },
    {
      "bufferView": 1,
      "byteOffset": 13808,
      "componentType": 5126,
      "count": 206,
      "max": [
        0.9684699177742004,
        0.8271631002426147
      ],
      "min": [
        0.6667885184288025,
        0.06562595069408417
      ],
      "type": "VEC2"
    },
    {
      "bufferView": 0,
      "byteOffset": 26388,
      "componentType": 5125,
      "count": 1026,
      "type": "SCALAR"
    },
    {
      "bufferView": 2,
      "byteOffset": 46368,
      "componentType": 5126,
      "count": 29,
      "max": [
        18.224681854248047,
        18.505823135375977,
        -53.46393585205078
      ],
      "min": [
        -18.22467803955078,
        -18.505826950073242,
        -79.43091583251953
      ],
      "type": "VEC3"
    },
    {
      "bufferView": 2,
      "byteOffset": 46716,
      "componentType": 5126,
      "count": 29,
      "max": [
        0.9788323640823364,
        0.9884993433952332,
        -0.10999191552400589
      ],
      "min": [
        -0.9788324236869812,
        -0.9939325451850891,
        -0.1496959924697876
      ],
      "type": "VEC3"
    },
    {
      "bufferView": 1,
      "byteOffset": 15456,
      "componentType": 5126,
      "count": 29,
      "max": [
        0.7369837760925293,
        0.05162977799773216
      ],
      "min": [
        0.5766142010688782,
        0.0005000000237487257
      ],
      "type": "VEC2"
    },
    {
      "bufferView": 0,
      "byteOffset": 30492,
      "componentType": 5125,
      "count": 81,
      "type": "SCALAR"
    },
    {
      "bufferView": 2,
      "byteOffset": 47064,
      "componentType": 5126,
      "count": 27,
      "max": [
        15.394736289978027,
        14.689485549926758,
        -79.43091583251953
      ],
      "min": [
        -15.394739151000977,
        -15.632233619689941,
        -89.90911865234375
      ],
      "type": "VEC3"
    },
    {
      "bufferView": 2,
      "byteOffset": 47388,
      "componentType": 5126,
      "count": 27,
      "max": [
        0.7226880192756653,
        0.6895809769630432,
        -0.6793258786201477
      ],
      "min": [
        -0.7226881384849548,
        -0.7338367700576782,
        -1.0
      ],
      "type": "VEC3"
    },
    {
      "bufferView": 1,
      "byteOffset": 15688,
      "componentType": 5126,
      "count": 27,
      "max": [
        0.5847282409667969,
        0.5538617372512817
      ],
      "min": [
        0.5315269827842712,
        0.5014688372612
      ],
      "type": "VEC2"
    },
    {
      "bufferView": 0,
      "byteOffset": 30816,
      "componentType": 5125,
      "count": 75,
      "type": "SCALAR"
    }
  ],
  "asset": {
    "extras": {
      "author": "media_mas (https://sketchfab.com/media_mas)",
      "license": "CC-BY-4.0 (http://creativecommons.org/licenses/by/4.0/)",
      "source": "https://sketchfab.com/3d-models/lampara-lowpoly-027f7c6b00e947cfb62abebee9588fa2",
      "title": "Lámpara - Lowpoly"
    },
    "generator": "Sketchfab-12.65.0",
    "version": "2.0"
  },
  "bufferViews": [
    {
      "buffer": 0,
      "byteLength": 31116,
      "name": "floatBufferViews",
      "target": 34963
    },
    {
      "buffer": 0,
      "byteLength": 15904,
      "byteOffset": 31116,
      "byteStride": 8,
      "name": "floatBufferViews",
      "target": 34962
    },
    {
      "buffer": 0,
      "byteLength": 47712,
      "byteOffset": 47020,
      "byteStride": 12,
      "name": "floatBufferViews",
      "target": 34962
    }
  ],
  "buffers": [
    {
      "byteLength": 94732,
      "uri": "scene.bin"
    }
  ],
  "materials": [
    {
      "doubleSided": true,
      "name": "03_-_Default",
      "pbrMetallicRoughness": {
        "baseColorFactor": [
          0.0509804,
          0.0509804,
          0.0509804,
          1.0
        ],
        "metallicFactor": 0.3553734756097561,
        "roughnessFactor": 0.2883003048780488
      }
    },
    {
      "doubleSided": true,
      "name": "02_-_Default",
      "pbrMetallicRoughness": {
        "baseColorFactor": [
          0.882353,
          0.0431373,
          0.0431373,
          1.0
        ],
        "metallicFactor": 0.4102515243902439,
        "roughnessFactor": 0.2578125
      }
    },
    {
      "doubleSided": true,
      "name": "04_-_Default",
      "pbrMetallicRoughness": {
        "baseColorFactor": [
          0.784314,
          0.784314,
          0.784314,
          1.0
        ],
        "metallicFactor": 0.26391006097560976,
        "roughnessFactor": 0.24561737804878048
      }
    },
    {
      "doubleSided": true,
      "name": "05_-_Default",
      "pbrMetallicRoughness": {
        "baseColorFactor": [
          0.34902,
          0.34902,
          0.34902,
          1.0
        ],
        "metallicFactor": 0.8675685975609756,
        "roughnessFactor": 0.4224466463414634
      }
    },
    {
      "doubleSided": true,
      "emissiveFactor": [
        1.0,
        1.0,
        1.0
      ],
      "name": "07_-_Default",
      "pbrMetallicRoughness": {
        "baseColorFactor": [
          0.7921570000000001,
          0.8666670000000001,
          0.38039199999999995,
          1.0
        ],
        "metallicFactor": 0.0
      }
    }
  ],
  "meshes": [
    {
      "name": "lampara_00_03 - Default_0",
      "primitives": [
        {
          "attributes": {
            "NORMAL": 1,
            "POSITION": 0,
            "TEXCOORD_0": 2
          },
          "indices": 3,
          "material": 0,
          "mode": 4
        }
      ]
    },
    {
      "name": "lampara_00_02 - Default_0",
      "primitives": [
        {
          "attributes": {
            "NORMAL": 5,
            "POSITION": 4,
            "TEXCOORD_0": 6
          },
          "indices": 7,
          "material": 1,
          "mode": 4
        }
      ]
    },
    {
      "name": "lampara_00_04 - Default_0",
      "primitives": [
        {
          "attributes": {
            "NORMAL": 9,
            "POSITION": 8,
            "TEXCOORD_0": 10
          },
          "indices": 11,
          "material": 2,
          "mode": 4
        }
      ]
    },
    {
      "name": "lampara_00_05 - Default_0",
      "primitives": [
        {
          "attributes": {
            "NORMAL": 13,
            "POSITION": 12,
            "TEXCOORD_0": 14
          },
          "indices": 15,
          "material": 3,
          "mode": 4
        }
      ]
    },
    {
      "name": "enchufe_cable_00_03 - Default_0",
      "primitives": [
        {
          "attributes": {
            "NORMAL": 17,
            "POSITION": 16,
            "TEXCOORD_0": 18
          },
          "indices": 19,
          "material": 0,
          "mode": 4
        }
      ]
    },
    {
      "name": "enchufe_cable_00_04 - Default_0",
      "primitives": [
        {
          "attributes": {
            "NORMAL": 21,
            "POSITION": 20,
            "TEXCOORD_0": 22
          },
          "indices": 23,
          "material": 2,
          "mode": 4
        }
      ]
    },
    {
      "name": "enchufe_cable_00_05 - Default_0",
      "primitives": [
        {
          "attributes": {
            "NORMAL": 25,
            "POSITION": 24,
            "TEXCOORD_0": 26
          },
          "indices": 27,
          "material": 3,
          "mode": 4
        }
      ]
    },
    {
      "name": "foco_00_07 - Default_0",
      "primitives": [
        {
          "attributes": {
            "NORMAL": 29,
            "POSITION": 28,
            "TEXCOORD_0": 30
          },
          "indices": 31,
          "material": 4,
          "mode": 4
        }
      ]
    },
    {
      "name": "foco_00_05 - Default_0",
      "primitives": [
        {
          "attributes": {
            "NORMAL": 33,
            "POSITION": 32,
            "TEXCOORD_0": 34
          },
          "indices": 35,
          "material": 3,
          "mode": 4
        }
      ]
    },
    {
      "name": "foco_00_03 - Default_0",
      "primitives": [
        {
          "attributes": {
            "NORMAL": 37,
            "POSITION": 36,
            "TEXCOORD_0": 38
          },
          "indices": 39,
          "material": 0,
          "mode": 4
        }
      ]
    }
  ],
  "nodes": [
    {
      "children": [
        1
      ],
      "matrix": [
        1.0,
        0.0,
        0.0,
        0.0,
        0.0,
        2.220446049250313e-16,
        -1.0,
        0.0,
        0.0,
        1.0,
        2.220446049250313e-16,
        0.0,
        0.0,
        0.0,
        0.0,
        1.0
      ],
      "name": "Sketchfab_model"
    },
    {
      "children": [
        2
      ],
      "matrix": [
        1.0,
        0.0,
        0.0,
        0.0,
        0.0,
        0.0,
        1.0,
        0.0,
        0.0,
        -1.0,
        0.0,
        0.0,
        0.0,
        0.0,
        0.0,
        1.0
      ],
      "name": "90a604aee5d0463f83340c53973cb18d.fbx"
    },
    {
      "children": [
        3,
        9,
        14
      ],
      "name": "RootNode"
    },
    {
      "children": [
        4
      ],
      "matrix": [
        0.2852399945259094,
        0.0,
        0.0,
        0.0,
        0.0,
        6.333600189332365e-17,
        -0.2852399945259094,
        0.0,
        0.0,
        0.2852399945259094,
        6.333600189332365e-17,
        0.0,
        -3.883643388748169,
        0.0052394866943359375,
        2.895962715148926,
        1.0
      ],
      "name": "lampara_00"
    },
    {
      "children": [
        5,
        6,
        7,
        8
      ],
      "matrix": [
        1.0,
        0.0,
        -0.0,
        0.0,
        0.0,
        1.0,
        0.0,
        0.0,
        0.0,
        0.0,
        1.0,
        0.0,
        -0.11233139038085938,
        11.623698234558105,
        0.0,
        1.0
      ],
      "name": "Object_4"
    },
    {
      "mesh": 0,
      "name": "lampara_00_03 - Default_0"
    },
    {
      "mesh": 1,
      "name": "lampara_00_02 - Default_0"
    },
    {
      "mesh": 2,
      "name": "lampara_00_04 - Default_0"
    },
    {
      "mesh": 3,
      "name": "lampara_00_05 - Default_0"
    },
    {
      "children": [
        10
      ],
      "matrix": [
        0.2852399945259094,
        0.0,
        0.0,
        0.0,
        0.0,
        6.333600189332365e-17,
        -0.2852399945259094,
        0.0,
        0.0,
        0.2852399945259094,
        6.333600189332365e-17,
        0.0,
        6.558494567871094,
        1.4498271942138672,
        -0.6413660049438477,
        1.0
      ],
      "name": "enchufe_cable_00"
    },
    {
      "children": [
        11,
        12,
        13
      ],
      "matrix": [
        1.0,
        0.0,
        -0.0,
        0.0,
        0.0,
        1.0,
        0.0,
        0.0,
        0.0,
        0.0,
        1.0,
        0.0,
        21.822940826416016,
        9.191705703735352,
        -5.064465045928955,
        1.0
      ],
      "name": "Object_10"
    },
    {
      "mesh": 4,
      "name": "enchufe_cable_00_03 - Default_0"
    },
    {
      "mesh": 5,
      "name": "enchufe_cable_00_04 - Default_0"
    },
    {
      "mesh": 6,
      "name": "enchufe_cable_00_05 - Default_0"
    },
    {
      "children": [
        15
      ],
      "matrix": [
        0.2852399945259094,
        0.0,
        0.0,
        0.0,
        0.0,
        6.333600189332365e-17,
        -0.2852399945259094,
        0.0,
        0.0,
        0.2852399945259094,
        6.333600189332365e-17,
        0.0,
        -3.822336435317993,
        32.05522918701172,
        4.690315246582031,
        1.0
      ],
      "name": "foco_00"
    },
    {
      "children": [
        16,
        17,
        18
      ],
      "matrix": [
        0.31904488801956177,
        0.0,
        0.0,
        0.0,
        0.0,
        -0.1827811357857996,
        0.2614970668837911,
        0.0,
        0.0,
        -0.2614970668837911,
        -0.1827811357857996,
        0.0,
        -1.214444637298584e-06,
        -6.848982334136963,
        -4.7873005867004395,
        1.0
      ],
      "name": "Object_15"
    },
    {
      "mesh": 7,
      "name": "foco_00_07 - Default_0"
    },
    {
      "mesh": 8,
      "name": "foco_00_05 - Default_0"
    },
    {
      "mesh": 9,
      "name": "foco_00_03 - Default_0"
    }
  ],
  "scene": 0,
  "scenes": [
    {
      "name": "Sketchfab_Scene",
      "nodes": [
        0
      ]
    }
  ]
}
